# xmcd
#
# Track frame offsets:
#	150
#	10262
#	18697
#	35932
#	48630
#	59870
#	74150
#	84302
#	92567
#	102385
#	114572
#	121037
#	129820
#	137647
#	147582
#
# Disc length: 2159 seconds
#
# Revision: 1
# Processed by: cddbd v1.5.2PL0 Copyright (c) Steve Scherf et al.
# Submitted via: audiograbber 1.83.01
#
DISCID=e0086d0f
DTITLE=Peter Ratzenbeck - Gitarero
DYEAR=1990
DGENRE=Guitar
TTITLE0=Last Flight Of The Frisbee
TTITLE1=Harry Lime Theme
TTITLE2=Reason To Believe
TTITLE3=Potato Juice - Bye Bye Melk
TTITLE4=Song For Marcel
TTITLE5=Corrina, Corrina
TTITLE6=Odyssee
TTITLE7=Merrily Kissed The Quaker's Wife
TTITLE8=The Entertainer
TTITLE9=Police Dog Blues
TTITLE10=Hawai Shuffle
TTITLE11=Song For Charly
TTITLE12=Blue Finger
TTITLE13=Senta's Lullabye
TTITLE14=Blind Man
EXTD=
EXTT0=
EXTT1=
EXTT2=
EXTT3=
EXTT4=
EXTT5=
EXTT6=
EXTT7=
EXTT8=
EXTT9=
EXTT10=
EXTT11=
EXTT12=
EXTT13=
EXTT14=
PLAYORDER=
